# xmcd
#
# Track frame offsets:
#	150
#	14861
#	24636
#	38926
#	50730
#	64144
#	71239
#	85643
#	97707
#	110661
#	124562
#	136702
#	147946
#
# Disc length: 2183 seconds
#
# Revision: 404961711
# Processed by: cddbd v1.5.2PL0 Copyright (c) Steve Scherf et al.
# Submitted via: EZCDAudioConverter 9.0.1.1
#
DISCID=b608850d
DTITLE=Steve Martin and Edie Brickell - Love Has Come For You
DYEAR=2013
DGENRE=Country
TTITLE0=When You Get To Asheville
TTITLE1=Get Along Stray Dog
TTITLE2=Love Has Come For You
TTITLE3=Friend Of Mine
TTITLE4=Siamese Cat
TTITLE5=Yes She Did
TTITLE6=Sarah Jane And The Iron Mountain Baby
TTITLE7=Fighter
TTITLE8=King Of Boys
TTITLE9=Sun's Gonna Shine
TTITLE10=Who You Gonna Take?
TTITLE11=Shawnee
TTITLE12=Remember Me This Way
EXTD=
EXTT0=
EXTT1=
EXTT2=
EXTT3=
EXTT4=
EXTT5=
EXTT6=
EXTT7=
EXTT8=
EXTT9=
EXTT10=
EXTT11=
EXTT12=
PLAYORDER=
